<svg width="12" height="12" viewBox="0 0 12 12" fill="none" xmlns="http://www.w3.org/2000/svg">
<path d="M2.8333 11.3337C2.62219 11.3337 2.44997 11.2503 2.31663 11.0837C2.1833 10.917 2.14441 10.7337 2.19997 10.5337L2.66663 8.66699H1.1833C0.961077 8.66699 0.783299 8.58099 0.649966 8.40899C0.516632 8.23655 0.477743 8.04477 0.533299 7.83366C0.566632 7.6781 0.64441 7.55588 0.766632 7.46699C0.888855 7.3781 1.02774 7.33366 1.1833 7.33366H2.99997L3.66663 4.66699H1.84997C1.62774 4.66699 1.44997 4.58099 1.31663 4.40899C1.1833 4.23655 1.14441 4.04477 1.19997 3.83366C1.2333 3.6781 1.31108 3.55588 1.4333 3.46699C1.55552 3.3781 1.69441 3.33366 1.84997 3.33366H3.99997L4.54997 1.15033C4.5833 1.00588 4.65552 0.889214 4.76663 0.800325C4.87774 0.711436 5.01108 0.666992 5.16663 0.666992C5.37774 0.666992 5.54997 0.750326 5.6833 0.916992C5.81663 1.08366 5.85552 1.26699 5.79997 1.46699L5.3333 3.33366H7.99997L8.54997 1.15033C8.5833 1.00588 8.65552 0.889214 8.76663 0.800325C8.87774 0.711436 9.01108 0.666992 9.16663 0.666992C9.37774 0.666992 9.54997 0.750326 9.6833 0.916992C9.81663 1.08366 9.85552 1.26699 9.79997 1.46699L9.3333 3.33366H10.8166C11.0389 3.33366 11.2166 3.41966 11.35 3.59166C11.4833 3.7641 11.5222 3.95588 11.4666 4.16699C11.4333 4.32255 11.3555 4.44477 11.2333 4.53366C11.1111 4.62255 10.9722 4.66699 10.8166 4.66699H8.99997L8.3333 7.33366H10.15C10.3722 7.33366 10.55 7.41966 10.6833 7.59166C10.8166 7.7641 10.8555 7.95588 10.8 8.16699C10.7666 8.32255 10.6889 8.44477 10.5666 8.53366C10.4444 8.62255 10.3055 8.66699 10.15 8.66699H7.99997L7.44997 10.8503C7.41663 10.9948 7.34441 11.1114 7.2333 11.2003C7.12219 11.2892 6.98885 11.3337 6.8333 11.3337C6.62219 11.3337 6.44997 11.2503 6.31663 11.0837C6.1833 10.917 6.14441 10.7337 6.19997 10.5337L6.66663 8.66699H3.99997L3.44997 10.8503C3.41663 10.9948 3.34441 11.1114 3.2333 11.2003C3.12219 11.2892 2.98885 11.3337 2.8333 11.3337ZM4.3333 7.33366H6.99997L7.66663 4.66699H4.99997L4.3333 7.33366Z" fill="#797EF3"/>
</svg>
