<svg width="18" height="17" viewBox="0 0 18 17" fill="none" xmlns="http://www.w3.org/2000/svg">
<path d="M4.25001 16.5C3.93334 16.5 3.67501 16.375 3.47501 16.125C3.27501 15.875 3.21668 15.6 3.30001 15.3L4.00001 12.5H1.77501C1.44168 12.5 1.17501 12.371 0.975009 12.113C0.775009 11.8543 0.716676 11.5667 0.800009 11.25C0.850009 11.0167 0.966676 10.8333 1.15001 10.7C1.33334 10.5667 1.54168 10.5 1.77501 10.5H4.50001L5.50001 6.5H2.77501C2.44168 6.5 2.17501 6.371 1.97501 6.113C1.77501 5.85433 1.71668 5.56667 1.80001 5.25C1.85001 5.01667 1.96668 4.83333 2.15001 4.7C2.33334 4.56667 2.54168 4.5 2.77501 4.5H6.00001L6.82501 1.225C6.87501 1.00833 6.98334 0.833333 7.15001 0.7C7.31668 0.566666 7.51668 0.5 7.75001 0.5C8.06668 0.5 8.32501 0.625 8.52501 0.875C8.72501 1.125 8.78334 1.4 8.70001 1.7L8.00001 4.5H12L12.825 1.225C12.875 1.00833 12.9833 0.833333 13.15 0.7C13.3167 0.566666 13.5167 0.5 13.75 0.5C14.0667 0.5 14.325 0.625 14.525 0.875C14.725 1.125 14.7833 1.4 14.7 1.7L14 4.5H16.225C16.5583 4.5 16.825 4.629 17.025 4.887C17.225 5.14567 17.2833 5.43333 17.2 5.75C17.15 5.98333 17.0333 6.16667 16.85 6.3C16.6667 6.43333 16.4583 6.5 16.225 6.5H13.5L12.5 10.5H15.225C15.5583 10.5 15.825 10.629 16.025 10.887C16.225 11.1457 16.2833 11.4333 16.2 11.75C16.15 11.9833 16.0333 12.1667 15.85 12.3C15.6667 12.4333 15.4583 12.5 15.225 12.5H12L11.175 15.775C11.125 15.9917 11.0167 16.1667 10.85 16.3C10.6833 16.4333 10.4833 16.5 10.25 16.5C9.93334 16.5 9.67501 16.375 9.47501 16.125C9.27501 15.875 9.21668 15.6 9.30001 15.3L10 12.5H6.00001L5.17501 15.775C5.12501 15.9917 5.01668 16.1667 4.85001 16.3C4.68334 16.4333 4.48334 16.5 4.25001 16.5ZM6.50001 10.5H10.5L11.5 6.5H7.50001L6.50001 10.5Z" fill="black"/>
</svg>
